<?xml version="1.0" encoding="UTF-8"?><svg  width="32" id="Layer_1" xmlns="http://www.w3.org/2000/svg" viewBox="0 0 654.6 699.6"><defs><style>.cls-1{fill:#747473;}.cls-1,.cls-2,.cls-3,.cls-4,.cls-5,.cls-6,.cls-7,.cls-8,.cls-9,.cls-10,.cls-11,.cls-12,.cls-13,.cls-14,.cls-15,.cls-16,.cls-17,.cls-18,.cls-19,.cls-20,.cls-21,.cls-22,.cls-23,.cls-24,.cls-25,.cls-26,.cls-27,.cls-28,.cls-29,.cls-30,.cls-31,.cls-32,.cls-33,.cls-34,.cls-35,.cls-36,.cls-37,.cls-38,.cls-39,.cls-40,.cls-41,.cls-42,.cls-43,.cls-44,.cls-45,.cls-46,.cls-47,.cls-48,.cls-49,.cls-50,.cls-51,.cls-52,.cls-53,.cls-54,.cls-55,.cls-56,.cls-57,.cls-58,.cls-59,.cls-60,.cls-61,.cls-62,.cls-63,.cls-64,.cls-65,.cls-66,.cls-67,.cls-68,.cls-69,.cls-70,.cls-71,.cls-72,.cls-73,.cls-74,.cls-75,.cls-76,.cls-77,.cls-78,.cls-79,.cls-80,.cls-81,.cls-82,.cls-83{stroke-width:0px;}.cls-2{fill:#1a1d1e;}.cls-3{fill:#1d2122;}.cls-4{fill:#1e2123;}.cls-5{fill:#747474;}.cls-6{fill:#3c4042;}.cls-7{fill:#66696b;}.cls-8{fill:#444648;}.cls-9{fill:#807f7f;}.cls-10{fill:#504f4f;}.cls-11{fill:#070b0d;}.cls-12{fill:#878889;}.cls-13{fill:#797d7f;}.cls-14{fill:#232324;}.cls-15{fill:#3b3d3f;}.cls-16{fill:#36383b;}.cls-17{fill:#494b4c;}.cls-18{fill:#36393a;}.cls-19{fill:#444849;}.cls-20{fill:#727475;}.cls-21{fill:#181c1f;}.cls-22{fill:#323232;}.cls-23{fill:#626465;}.cls-24{fill:#4d5051;}.cls-25{fill:#828383;}.cls-26{fill:#797a7c;}.cls-27{fill:#8e8c8e;}.cls-28{fill:#7f8182;}.cls-29{fill:#908f91;}.cls-30{fill:#686868;}.cls-31{fill:#2c2f31;}.cls-32{fill:#383b3d;}.cls-33{fill:#6c6f71;}.cls-34{fill:#3e4243;}.cls-35{fill:#35393b;}.cls-36{fill:#353839;}.cls-37{fill:#2b2b2b;}.cls-38{fill:#606366;}.cls-39{fill:#444749;}.cls-40{fill:#787879;}.cls-41{fill:#454445;}.cls-42{fill:#363a3b;}.cls-43{fill:#717275;}.cls-44{fill:#6b6d70;}.cls-45{fill:#525356;}.cls-46{fill:#818181;}.cls-47{fill:#777a7b;}.cls-48{fill:#8a8b8d;}.cls-49{fill:#05090a;}.cls-50{fill:#5f6366;}.cls-51{fill:#5c5c5c;}.cls-52{fill:#55575a;}.cls-53{fill:#3f4245;}.cls-54{fill:#202426;}.cls-55{fill:#454546;}.cls-56{fill:#808182;}.cls-57{fill:#4f4f4f;}.cls-58{fill:#3d3e3d;}.cls-59{fill:#222628;}.cls-60{fill:#565656;}.cls-61{fill:#3b3e40;}.cls-62{fill:#424748;}.cls-63{fill:#333637;}.cls-64{fill:#3a3a3a;}.cls-65{fill:#616466;}.cls-66{fill:#434647;}.cls-67{fill:#606365;}.cls-68{fill:#343838;}.cls-69{fill:#5b5e60;}.cls-70{fill:#828282;}.cls-71{fill:#7f8083;}.cls-72{fill:#565a5b;}.cls-73{fill:#8d8f8f;}.cls-74{fill:#292929;}.cls-75{fill:#2c2f33;}.cls-76{fill:#3d4042;}.cls-77{fill:#878786;}.cls-78{fill:#6b6a6a;}.cls-79{fill:#636363;}.cls-80{fill:#34383a;}.cls-81{fill:#303234;}.cls-82{fill:#848888;}.cls-83{fill:#535455;}</style></defs><path class="cls-55" d="M-2.9,353.3c3,0,6,0,9,0-1.1,3.4-4.1,1.2-6.1,2-2.5,0-5,0-7.6,0,.4-2.2,2.8-.8,3.8-2,.3.1.6.1.9,0Z"/><path class="cls-49" d="M0,355.4c1.6-1.8,4.4-.2,6.1-2,14.3-1.3,28.5-2.6,42.8-4,1.8-.2,3.5-.6,5.3-1,6.2-3.4,13.2-2.7,19.9-3.5,15.3-1.7,30.6-3.7,45.8-6.4,2.3-.4,4.5-1,6.7-1.9,6.8-2.9,7.7-4.6,5.7-11.6-.5-1.9-1.3-3.7-2.1-5.5-.4-1.1-.8-2.2-1.3-3.3-3.5-6.4-6.8-12.9-10.6-19.1-1-1.5-2-3-2.2-4.9,0-1,.3-1.9,1.4-2.3,3.5,1.7,5.9,4.6,8.3,7.5,3.1,3.7,6.3,7.2,10.2,10,2.5,2.3,5.1,4.4,8.1,6,2.1,1.6,4.5,2.8,7,3.9,1.8,1,3.6,1.9,5.5,2.7,2.5,1.3,5.1,2.5,7.8,3.3,8.9,3.7,18.1,6.2,27.7,7.5.5,0,1,.2,1.5.3,9.2,2.1,18.7,1,28,2.3,2,.3,4.7,1,5.9-1.9-4.7-6.2-11.6-9.3-18.1-12.9-4.1-1.9-7.8-4.5-12.3-5.6-1.9-.7-4.1-.8-5-3.1-.1-1.2.2-2.1,1.4-2.6,3.5-.3,6.5,1.8,9.8,2.1,5.2,1.1,10.4,2.3,15.5,3.4,4.8,1,9.6.7,14.3-.5.4-.2.9-.3,1.4-.5,3.1-.8,6.1-2,8.9-3.7,5.9-2.7,10.2-7.3,14.5-11.9,1.2-1.2,2.1-2.6,1.6-4.4-1.6-3.5-4.2-6.3-6.5-9.3-1.1-1.4-2.5-2.7-2-4.8.4-1.1,1.3-1.5,2.4-1.4.8.2,1.4.5,2.1.9,2.5,1.6,4.8,3.6,7.1,5.5,3.3,2.8,5.8,2.3,8.5-.8,11.6-13,18.2-27.3,13.6-45.2-1-4-2.2-8-2.5-12.2.2-1.6,0-3.3,2-3.9,3.3,1.7,3.8,5.3,5.1,8.2,3,7.2,5.7,14.5,10.7,20.6,1.2,1.5,2.3,3.2,4.7,4.1-1.2-14.6-1.4-28.7-4.2-42.7-1-7.1-3.5-13.7-5.8-20.4-5.4-14.8-13.4-27.7-25.1-38.4-2.6-2.4-6-4.3-6.5-8.4.3-1.1,1.2-1.5,2.3-1.5,3.5.9,5.9,3.6,8.8,5.4,6.4,4.2,12.7,8.5,19.8,11.6,3.4,1.5,7.1,3.3,10.8.6,3.8-3.4,4-8.2,4.9-12.8,1.1-14.1,4.4-28,4.3-42.2.2-3-.9-6.2,1.9-8.7h.4s.2-.3.2-.3c1.4-3.6-.2-7.1,0-10.7.6-7.4,1.3-14.7,1.9-22.1.9-10.2,1.6-20.5,2.5-30.7.6-6.6.9-13.3,1.4-19.9,1-3,.6-6.2.8-9.3,0-1.5,0-3.5,1.6-3.8,1.9-.3,1.8,1.9,2.3,3.2.2.6.4,1.2.6,1.9.2,12.5,1.4,25,2.5,37.5.6,6.9,0,13.9,1.7,20.7,1,4-1.7,7.8-.4,11.7,0,3.9.2,7.9,1,11.7,3.3,10.4,3.2,21.1,3.6,31.8.2,4.8.9,9.5,1.3,14.3h0c2.6,3.6,1.4,8,2.4,11.9.7,3,.9,6.2,1.6,9.3,1.7,6.8,4.1,8.3,11.1,7.5,1.5-.2,3-.2,4.4-.7,10-4.4,18.8-10.9,27.7-17.1,1.4-.8,2.1-.6,2.1,1.1-2.1,2.2-4.1,4.5-6.2,6.7-3.6,5.6-8.7,10-12.4,15.6-3.8,6.4-8.4,12.5-10.8,19.7-1.2,2.4-2,5-2.7,7.6-6.9,19.3-7.4,39.4-8.8,60.6,5-4,7.3-8.4,9.6-12.7,1.1-2,1.5-4.5,4.2-5.2,1.3.2,1.8,1.1,2,2.2-.7,4.9-3.3,9.2-4.2,14.1-.3,1.9-.8,3.9-1,5.8.4-4.6,1.9-8.9,3.2-13.3.4-1.3.9-2.5,2.6-2.6,2.5,1.8,1.6,4.5,1.8,6.8.2,2.1-.2,4.3.5,6.4,1.4,4.2,2.6,8.5,4.8,12.4,1.8,3.8,4.7,6.8,7,10.3.6.8,1.1,1.7,1.8,2.4,4.5,4.6,5.7,4.6,10.8.8,2.2-1.6,3.9-4.3,7-4.4,1,.3,1.4,1.1,1.5,2.2-1.1,3.5-3.3,6.4-5.4,9.4-1.1,1.6-2.6,3.2-.6,5.2,3.9,3.9,7.3,8.3,12.1,11.2,7.4,4.9,15.4,7.9,24.4,8,1.8.2,3.8-.2,4.9,1.9-.6,3.1-3.5,3.2-5.7,4.1-2.3.9-4.7,1.5-7,2.3-7,1.8-10.9-3.2-14.3-6.4,3.8,4.6,9,8.9,16.9,5.6,4.1-1.2,8.2-2.6,12-4.6,1.4-.8,2.9-1.6,4.7-.8.6.6.7,1.3.6,2-2.3,3.7-7,4-9.7,7.2-1.8,1.9-3.7,3.7-5.7,5.4-1.7,1.9-.4,2.2,1.2,2.2,3.3,0,6.6.2,9.9,0,6.9-.5,13.8-.8,20.7-1.6,7.6-.9,15.1-2.2,22.3-4.8,10.1-2.7,19.3-7.2,28-12.9,9.5-5.3,16.5-13.3,23.7-21.2,1.9-2,2.9-4.9,6.1-5.6,1.1.3,1.5,1.2,1.6,2.2-1.8,6.1-6.2,10.9-8.9,16.5-2,3.8-4.1,7.5-5.9,11.4-1.5,3.3-3,6.6-3.5,10.2-.4,2.9,0,5.6,2.5,7.5,7.2,3.8,15.2,4.5,23.1,5.4.6,0,1.1.2,1.6.3,18.1,2.7,36.2,4.4,54.4,6.4,7.1.8,14.1,2,21.3,2.1.6,0,1.2.1,1.8.3,8.1,1.2,16.4,1.3,24.5,2.5,1.8.3,3.6.1,5.2,1.3.6.9.5,1.7-.1,2.5-6.6,2-13.4,2.4-20.1,2.1-8.9-.3-17.9-.2-26.6,1.3-11.1,1.9-22.2,1.8-33.3,3.1h0c-13.3,3-27,3.9-40.4,6.3-2,.4-3.9.9-5.8,1.5-8.8,2.6-9.3,3.6-7.3,12.7.2.5.3.9.5,1.4,1,4.6,2.9,8.8,5.6,12.7.5.8.9,1.6,1.4,2.5,1.8,4.9,5.7,8.8,6.9,14,0,1.1-.4,1.9-1.4,2.4-3,.2-4.1-2.2-5.6-4.1-1.3-1.7-2.9-3.1-4.4-4.6-4.8-5.3-10.1-9.9-16.4-13.4-15.8-10.6-33.3-16.3-52.1-18.9-5.1-.7-10.2-1-15.4-1.2-5.4-1.4-10.7-.7-16.4-.3,4.1,4.5,8.5,8.3,13.8,11.1,5.5,2.8,11.1,5.3,16.4,8.4,1.8,1.1,4,1.8,5,3.9-.3,1.3-1.2,1.6-2.3,1.8-5-.3-9.5-2.6-14.2-3.7-3.7-.9-7.3-1.8-11.1-2.3-8.8-2.1-16.7.4-24.1,4.7-5.2,3-9.6,6.9-13.6,11.4-2.6,2.9-2.5,5.5-.2,8.4,2.2,2.9,4.1,6,5.8,9.2.2,1,0,1.9-.9,2.5-4.6-.6-7.3-4.2-10.3-7-2.8-2.6-5.1-2.8-7.5.2-2.4,2.1-4.4,4.4-6.1,7.1-2.6,3.5-5.3,6.9-6.8,11-1.1,2.7-1.6,5.7-2.8,8.4-.9,2.5-.4,5.2-.6,7.8-.1,1.9.3,4-1.7,5.3-3.1-1-2.9-4-3.9-6.3-.8-2-1-4.1-1.7-6.1-1.1-6.8,1.3-12,5.6-15.1-4.1,3.4-8,8.2-5.7,15.6,1,3.6,2.3,7.2,3,10.9-.4,2.1-1.6,2.6-3.4,1.7-3.8-3.3-5.3-8.3-10.3-12.3,1,9.7.8,18.3,1.8,26.9.5,4.2,1.1,8.3,1.9,12.4,1.1,7.7,3.3,15.1,5.7,22.5,4.6,14.9,13.3,27.3,23.7,38.7,4.2,4.6,9.4,8.4,12.9,13.8,0,1.3-.8,1.7-1.9,1.9-.5,0-1,0-1.4-.1-4.3-2-7.4-5.8-11.5-8.1-6.6-5.2-13.8-9.5-21.5-12.7-8.5-4-12.2-2.2-14.3,6.9-1.3,5.7-1.8,11.6-3.6,17.3-2,13.8-3.4,27.7-4.1,41.7.6,7.9-.7,15.7-1.4,23.5-1,11.1-2.1,22.2-3.9,33.3-.4,2.4.5,5-.6,7.3-.6,8.2-1.2,16.4-1.8,24.6-.2,0-.4,0-.7,0-.5-5.2-1-10.4-1.5-15.7-.5-15.8-2.3-31.5-3.9-47.2-2.8-3-.6-6.9-2-10.2-.2-.5-.3-1-.3-1.6-.4-3.2.3-6.4-.7-9.5-.2-.5-.3-1.1-.4-1.6-2.1-19.1-3.4-38.2-6.2-57.2-.3-2-.9-3.9-1.3-5.8-4.5-8.9-6.5-9.6-15.8-5-4.2,2-8.2,4.2-12,7-6.3,3.7-11.9,8.6-18.5,11.9-1.1.1-1.9-.1-2.4-1.2-.2-2.5,1.6-4,3.3-5.2,6.9-5.3,11.9-12.2,17.5-18.7,4.6-5.8,8-12.3,11-19,3.6-8.3,7.1-16.6,8.8-25.5,3.1-14.6,3.2-29.4,4.7-45.1-4.7,3.2-6.8,6.9-8.8,10.6-3.5,6.4-6.3,13.1-9,19.9-.7,1.8-1.1,3.9-3.1,5-2.1-.5-2-2.2-2.2-3.8,1-7.6,2.9-14.9,3.7-22.5,1.6-15.4-5.8-27.1-15.7-37.6-1.9-2-4.2-1.6-6.2,0-2.3,1.9-4.5,3.9-7.1,5.4-1.5.8-2.7,2.2-4.4,2.6-1.2-.2-1.5-1.1-1.5-2.2,1.7-4.2,5-7.3,7.4-11,1.4-2.2,2.9-4.2.4-6.6-7.1-7.9-15.1-14.5-25.9-16.7-10.2-1.5-19.9.8-29.5,4-2.8.6-5.3,2.1-8.3,1.9-1.7-.6-1.7-1.7-.9-3,2.2-2.4,5.3-3.3,8.1-4.7,2.6-1,4.9-2.6,7.2-4,6.6-3.2,12.6-7.2,17.8-12.4.6-3.9-2.7-2.3-3.8-2.2-9,1.1-18.1,1-27.1,2.4-6.4,1.1-12.7,1.9-18.9,3.8-17.3,4.9-32.6,13.3-45.7,25.6-4.2,3.1-6.6,8-10.9,11.1-.5.1-1,.1-1.5,0-1-.5-1.4-1.4-1.4-2.5,1.8-6.3,5.9-11.4,8.8-17.2,1.5-2.9,3.2-5.8,4.1-9,.4-1.3.9-2.5,1.2-3.8,2.5-8.8,1.6-10.5-7.4-13.2-17.1-4.1-34.8-4-52-7.5-5.7-1.2-11.5-1.1-17.2-1.8-14-1.6-28.1-.9-42.1-3-.5,0-1-.2-1.5-.3-4-1.2-8.1-1.4-12.2-2.1h0Z"/><path class="cls-51" d="M391.4,141.6c-.4.3-.7.6-1.1,1-.6.6-1.3,1.1-1.9,1.7-.6.2-1.1.4-1.7.6-.3-1-1.3-1-2.1-1.1,3.6-3.6,8-6.1,12.7-9.4-1.2,3.7-4.5,4.8-5.9,7.3Z"/><path class="cls-55" d="M12.1,356.3c-2.3,0-4.7,0-7,.1-1.7-.3-3.4-.7-5-1,4.1-.3,8.1-.7,12.1.9Z"/><path class="cls-69" d="M326.6,151.6c1.9,3.5.6,7.4,1.1,11.1,1,7.1,2.2,14.3,1.8,21.5-.1,2.2.5,3.5,2.9,3.2.7,2.9-3.4,2.6-3.4,5.6,1.5-2.6,4.3-3.5,4.6-6.4,2.6-3.2,6.6-4,9.9-6.1.7-.7,1.5-.6,1.9.1.4.8-.2,1.4-1,1.7-5.2,4.3-9.3,9.4-11.9,15.7-.6,1.5-.6,1.5,1.3,3.2.9.8,0,1.5-.2,2.1-6.2,18.8-4.3,38.1-3,57.2.2,2.8.7,5.6,2.7,7.9.5,2.3.9,4.6-2.8,4-2.8-7.3-3.3-15.1-3.9-22.8-1.1-15.3.6-30.5.9-45.8,0-3.3.6-8.5-2.4-8.6-2.9,0-2.7,5.1-2.5,8.3.5,7.3,1.2,14.5.7,21.9-.7,0-1.1,0-1.1.2.6,8.8.2,17.6.2,26.3,0,1.4.4,3.2-1.8,3.4,0-8.8-.1-17.6,0-26.4.2-9.4-1.3-18.5-5-27.2,1.6-1.1,2,1.2,3.4.9-2.1-11.6-10.9-18.4-18.8-25.8,4.9,4.1,11.8,4.8,16.1,9.7.7,2.7,3.5,3.6,5.1,6.9-.4-3.3-3.6-3.5-3.1-5.9,1.5-.2,3.4-.2,2.9-2.4-2.1-8.9.9-17.4,1.5-26.1.8-12.1.6-24.2.7-36.3,0-11,.9-21.9,1.6-32.8,2.1,19.5,1.9,39.1,1.5,58.6-1.5,0-1.4-1-1.4-2,0-12.4,0-24.8,0-37.2-.2,25.8.6,51.7-.1,77.5.2-7.4,0-14.8.2-22.2.1-4.4-.3-8.9,1.5-13.2Z"/><path class="cls-16" d="M311.5,334.6c5.6.6,9.6-1.4,11.1-7.2,1.9,1.4.5,4.2,2.2,5.7,2.6-1.1,1-4.4,2.9-5.8,1.9,4.9,4.6,8.6,10.7,7,1.6,1.4-1.7,4.3,1.2,4.8,2.7.5,3.1-2.3,4-4.1.7-1,1.3-2.1,2.9-1.6-.5,1.6-.8,3.1-1.4,4.7-2.3,6-1.8,7.7,3.5,11.2-1,2.2-5.3.2-4.9,3.4.3,1.9,3.8,1.6,4.8,3.7-6.3,2.3-5,7.2-4,12-1.9.7-2.2-2.3-4.1-1.8,0,2.8,3.5,3.8,3.3,6.6-.5,0-1,.1-1.4,0-9-4.2-9.5-4.1-14.7,3.3-1.7-2.1-3.4-1.4-5,0-2.4-4.2-5.5-7.2-10.9-6-1.2-1.6.5-3.5-.5-5.2-2-.6-3.4,2-5.5,1.2,1.6-4.1,1.5-7.7-3.2-9.9,1-1.9,4.6-1.4,4.5-3.9-.1-2-3.6-1.2-4.4-3.3,4.7-3.9,5.1-6.4,1.9-11.8-.9-1.5-1.3-3.4-1.9-5.1,3.8-.5,4.4,2.9,6,5,.7.8,1.2,2.3,2.5,1.4,1.7-1.1-.4-3,.4-4.4Z"/><path class="cls-67" d="M323.5,548.2c-1.4-8.5-2.3-17-2.1-25.6,0-1.9,1.5-4.5-1.8-5.4.2-2.9,3-3.9,4.3-5.9,1.8-1.4,1.9-3.5,1.9-5.5.2-7.5.3-14.9-.3-22.4-.6-8.7-1.9-17.5,1-26.1,1.3-5.2.2-10.8,1.9-16,.8-1.4.5-3.2,1.6-4.6.6-.7,1.3-1.1,2.1-.6.8.5.9,1.3,0,2-1.8,4.7-2.5,9.6-2.6,14.5-.2,11.6-.5,23.2.6,34.9.4,4.6,2.2,8.6,3.3,13,.2.7,3.4,3.5-1.2,2.6-1.3-.3-.5,2.1-.2,3.2,2.2,7.8,7.5,13.1,13.9,17.6,1.1.8,2.4,1.3,3.2,3.6-6.1-3.1-11.7-5.6-16.6-9.3.7-2.6-2.2-2.9-3-5.3,0,2.9,3.4,2.8,3,5.2-2.7-.2-3,1.4-3.2,3.7-1,12.5-2.3,25-2,37.6,0,.9-.5,1.9-.7,2.8-1.8-1.5-1.5-3.6-1.5-5.5,0-5.8,0-11.6,0-17.4-.2-4.9.6-9.9-.4-14.8.5,6.6.2,13.2.2,19.7,0,1.5,0,3-1.4,4Z"/><path class="cls-45" d="M470.4,355.4c4.5,0,8.9.2,13.4-.1,1.6-.1,5.7.7,3.4-3.6.1-.4.4-.8.7-1.1,2.1-.9,2.9-3.3,4.7-4.4.5,0,.8,0,1.1.5,2.8,3.7,7.1,1.9,10.5,2.4,8.9,1.4,18,2.7,27.1,2.4.3.6.2,1.1-.4,1.5-3.7,1-7.5.2-11.3.5-6.2.5-12.5.6-19.1.3,9.7.9,19-.7,28.4-.3,7.6-.3,15.3-1.2,22.9.3.6.4.8.9.5,1.6-18.2-.5-36.3,1.6-54.5,2.1-3.3,0-3.4,1.7-3.4,4-2.9.2-2.4-3.6-5.5-4.3,2.7,3.1,4.5,6.2,7.6,8.2,3.8,5.1,5.1,11.5,9.7,16.2-4.4-2.4-6.8-6.5-9.8-10.1-3.9-4.8-8.3-9-14.2-11.3-.6-.2-3.7-3-2.6,1.3.3,1.2-.9.7-1.3.5-6.6-3.9-14.1-2.8-21.2-4.3,2-2.3,4.8-1.1,7.2-1.6,2-.4,4.1,1.2,5.9-.6Z"/><path class="cls-52" d="M151.8,330.4c4.1,4.8,8.2,9.7,12.9,14,2.1,3.9,6,4,9.6,4.5,2.8.4,5.6,0,8.4.2,1.6.1,3.8-.4,4.1,2.3-5.8,0-11.6-.2-17.3-.1-1.6,0-3.4.4-4.3,2-.9,1.7,1.1,2,1.8,3-.3.4-.6.6-1.1.8-3.3-.9-4.5,2.7-7.1,3.3-.4-1.1.2-3.1-2.1-2.5-5,1.2-9.9.2-14.8-.5-10.4-1.4-20.9-1-31.4-1.2-1.6,0-3.4.5-4.8-.8,1.4-1.5,3.3-1.5,5.1-1.5,13.5,0,27.1,0,40.6,0-5.9-.1-11.7,0-17.6,0-2.1,0-4.3.3-6.1-1.5,5.6-1.8,11.4-1.1,17.1-1.9,3.3-.5,6.7-1.4,10.3-.5,2.5.6,4-1,2.4-4-2.4-4.5-4.6-9-6.9-13.6-.6-1.1-.7-2,1-2Z"/><path class="cls-21" d="M330.6,272.5c2.4-.3,2-2.5,2.8-4,7.5,3.5,12.5-1.3,17.8-6.8,0,4.3-2.8,6-2.9,9,0,1.7-3.4,3.4.3,5.1.9.4,0,1.2-.5,1.4-4.6,2.4-5.7,7-6.8,11.4-3.3,0,.3-4-2.7-4.1-2.3-.1-3.2,2.2-5,3-1.6-.9-.6-3-2-4,1.5-3.8-1.1-7.3-1.1-11Z"/><path class="cls-7" d="M320.5,436.4c2.8,7.3,2.9,15.1,3.2,22.8,1.6,2,1.2,4.4,1.4,6.7.6,12.4-1.1,24.8-1,37.2,0,2.2,0,4.3.2,6.4-1.8,3.2-4.3,5.4-8,6.1-1.2-.6-1.4-1.4-.7-2.5.8-1.8,1.9-3.6,2.2-5.5.2-1.2,4-3.5-.8-4.2-.9-.1.3-2.3.6-3.6,4.7-20.1,5-40.3.9-60.5-.5-1.4-1.2-2.8.3-3.9.8-.6,1.4.2,1.7,1Z"/><path class="cls-2" d="M323.5,511.2c-1.9-6.7-1.2-13.6-.6-20.3,1-10.6.6-21.2.8-31.8,1.5.2,1.8-1.5,2.9-2-.7,15.6,1.1,31.2,1.1,46.8,0,2.6-.7,4.9-1.2,7.3-.5,2.3-1.7,1.5-2.9.8-.2-.1-.4-.3-.3-.5,0-.2,0-.3.1-.3Z"/><path class="cls-45" d="M487.2,351.6c-5.5-2.3-11.3-1.4-17-.9-4.3.4-8.5.6-12.7.6.6-3,3-1.7,4.6-1.9,2.8-.4,6,.5,8.3-2.1,2.9-1.3,5.7-2.5,8.6-3.7,1.2-.5,2.3-1.4,2,1.3-.2,2.2,1.8,1,2.8.6,4.5-2.1,8.6-4.8,11.6-9.1,5-7.1,10.9-13.5,17.4-19.4-8,8.8-13.6,19.1-19,29.6-.2-.1-.3-.3-.5-.4-3,.3-4.1,2.9-5.6,4.9-.1.2-.3.4-.4.5Z"/><path class="cls-3" d="M320.5,436.4c-3.5-1.1-1.2,2.1-2.1,2.9-7-6.6-12.9-5.2-17.9,3.3-.4-3.6,2.1-5.3,2.7-8,.8-4.3,4.7.5,6.9-1.5-1-1.5-2.4-1.6-3.8-1.9-1.4-.3-2.7-.9-4.7-1.6,3.9-3.4,7.6-6.4,7.5-12.1,2.7,1.9.5,3.5,1.1,5,4.5-.4,6.3-3.5,7.3-7.3,2.4,2-.5,4.8,1.1,7,0,1.7-.6,2.8-2.7,2.3-2.4-.6-3.5,1.5-4.7,2.9-.8,1-.6,2.2.4,3.1,1.1.9,2.4,1.1,3.6,0,3.1-2.6,4.5-2.1,5.3,1.9.3,1.3,0,2.6,0,3.9Z"/><path class="cls-4" d="M410.5,360.3c-2.7,2.9-1.9,6.5-2,9.9,0,1.4,0,4.3-1,3.7-3-1.8-5.8,4.9-8.4-.2-1.5-3-4.8-3.9-8.2-5.8,5.9-.6,2.3-4.1,2.6-6.5.3-.9,1.3-1.2,1.9-1.9,1.8,1.5,1.2,4.3,3.4,5.7,1.7,1.1,3.2,1.8,4.9.3,1.4-1.3.8-2.7-.4-3.8-1.7-1.6-1.5-2.8.8-3.3,2.5-.6,4.8-2.2,7.5-1.8.3,1.5-1.3,2.4-1.2,3.8Z"/><path class="cls-47" d="M186.8,351.4c-3.8-2.1-8-.9-12-1.1-4.1-.2-7.7-1.2-10.7-4.1-.9-.9-1.2-1.7.5-1.8,1.7.7,3.4,1.4,5.1,2.1,5.4.2,10.7,1.2,16.1,1.7,13.9.6,27.8,1.9,41.7.3,3.8-.4,7.5-1.3,11.1-2.3,1.1-.3,1.4.4,1.4,1.2,0,1.4-1.7,1.1-2.4,1.8-3.3,1.4-6.8,1.7-10.2,1.8-13.6.3-27.1,1.3-40.7.3Z"/><path class="cls-54" d="M316.6,284.4c-.8,0-1.7,0-2.4-.3-2.9-1.2-4.8-1.1-4.2,3.4-2.4-4.2-4.7-7.7-7.4-11-.7-.9.9-5,1-7.7,0-.6,1.7.1,2.7.3,3.9.5,7.9,1.2,11.4-1.7,1.4.5,1.9,2,2.9,2.8.3,1.6-.4,2.9-.8,4.4-.3,1.1,0,2.5-1.7,2.6-1.1,0-1.9-.7-2.2-1.7-1.1-3.4-3.1-1.7-4.6-.7-2.2,1.4,0,2.7.4,4.2,1.2,3.3,5.5,1.7,6.9,4.5-.5.6-1.1,1-1.9.9Z"/><path class="cls-26" d="M410.5,360.3c-2.3-2.1.4-2.7,1.2-3.8,15.8-2.5,31.8-2.1,47.8-2,3.3,1.2,6.8-.4,10,.9.3,0,.6,0,.9,0,0,.7,2.6,1.8-.2,1.9-4.3.2-8.6.2-12.9.2-13.2-.3-26.5-1.3-39.6.8-2.5.4-4.9.8-7.1,2Z"/><path class="cls-72" d="M165.8,356.3c.4,0,.8,0,1.2,0,7.3-.3,14.5-.6,21.8-.9.7,2.7-2.9,1.1-3,3-4.8,1.2-9.7,2.4-13.9,5.3-.9-2.1,1.3-2.5.9-4.2-7.9,2.2-12.9,8.1-18,13.9-1.9,2-2.1,2-3,0,1.6-3.6,2.9-7.3,5.9-10.1,2.8-2.2,5-5,8.1-6.9Z"/><path class="cls-31" d="M367.6,333.4c.1,6.8,1.8,8.6,8.5,10,4.1.9,8.2.9,12.3,1,3,0,5.6-1.1,5.7-4.2.2-4.9,4.1-6.5,6.8-9.4,1.9,2.8-2.3,3.5-1.5,5.9,1.6.5,4-2.9,5.1.7h0c-3.9.9-8.3.7-8.4,6.8,0,1.8-3.1,2.1-5.1,2.2-9.7.6-19.2.7-27.3-6-3.3-2.8-.4-4.8.6-7.1,1.1.3,2.1-.6,3.2.1Z"/><path class="cls-20" d="M470.3,347.3c1.1.4,2.6-.5,3.7,1.4-5.7.9-11.1,1.8-16.6,2.6-14.7,0-29.3.6-43.9-2-1.1-.8-3.3-.5-3-2.6.1-1,1.2-.9,2-.5,12,3.4,24.3,3.6,36.6,2.5,7.1-.6,14.3.7,21.2-1.5Z"/><path class="cls-66" d="M331.7,283.5c2.8.2,1.6,2.5,2,4-.6,5.9-.7,11.9,1,17.7,1.9,6.3,5.5,7.7,11.4,4.8,2.8-1.4,5.6-2.7,8.5-4.1.4-.2.9,0,1.8.7-4.2,2.5-8.2,5.4-12.6,7.5-3.8,1.8-9.3-1.3-10.7-6.1-2.4-8-3.4-16.2-1.4-24.4Z"/><path class="cls-17" d="M357.9,399.4c-4,.3-7.1-1.5-10.3-3.3-7-4-11-2.2-13.1,5.7-1.4,5.1-.8,10.2-.9,15.4,0,1.7.7,3.5-.7,5.6-1.9-3.2-2.2-6.6-1.9-9.6.4-4.1,1-8.3,1.3-12.3.3-5.8,4.9-7.4,8.3-10.2,1.4-1.1,3.6.3,5.1,1.2,4.2,2.4,8.2,5,12.3,7.5Z"/><path class="cls-62" d="M395.4,359.5c0,1.3-.7,1.8-1.9,1.9-7.6-2.2-15.1-1.5-22.4,1.5-4.5,1.9-4.4,5.8-2.9,9.7,1.4,3.6,2.9,7.2,3.4,11.3-2.1-3.5-4.4-6.9-6.4-10.5-3.1-5.7-1.4-10.1,5.2-13,8.1-3.5,16.5-2.9,24.9-.9Z"/><path class="cls-28" d="M185.9,358.4c-.8-.3-2.2.2-2.4-1-.1-1.1,1.1-.9,1.8-1,1.3-.1,2.6.1,3.5-1.1.6,0,1.3,0,1.9,0,9.1-.7,18.1-.6,27.2,0,6.6,0,13.2-.3,19.8,1.2,1.1.7,2.5,1.1,2.1,2.7-.2.8-1.3.7-2,.3-12.5-2.8-25.1-2.2-37.7-1.9-3.7.8-7.5-.4-11.2.7-1,0-2,0-3,.1Z"/><path class="cls-8" d="M316.6,284.4c.4-.7,1.1-1,1.9-.9,2,6.9.8,13.8-.1,20.7-.9,7.3-9,13.5-16.4,8-2.9-2.2-6-4-8.8-6.3,3.8.2,6.8,2.2,10,3.8,7.1,3.4,10.4,2.1,12.5-5.6,1.7-6.4,2.3-13,.9-19.6Z"/><path class="cls-39" d="M318.6,422.2c-2-2.1-.6-4.7-1.1-7,.3-5.2-.4-10.3-2-15.2-2-6.1-5.3-7.5-11-4.6-4.2,2.2-8.3,4.5-14.4,5.7,4.6-3,8-5.3,11.5-7.4,8.3-5,14.1-2.4,16.5,7.4,1.7,7,2.1,14,.5,21.1Z"/><path class="cls-37" d="M363.6,447.2c.2,2.7-.9,5.3-.1,8,1,9.8,4.2,19.1,5.8,28.7.4,2.1,1,4.2-.7,6.1-.3,0-.6,0-.9,0-2.8-10-7.3-19.2-11.1-28.8,1.1.6,2,.5,2-1.1,3.2,0,1.1,4.4,3.5,4.7-1.1-.9-2-2.1-.4-3.7,1.6-2.8.2-5.9.6-8.8.2-1.7-.5-3.7,1.2-5.1Z"/><path class="cls-76" d="M531.4,352.2c0-.3,0-.5,0-.8,18.5-.7,36.8,1.3,55.3,1.8-11.3,3.3-22.9,1.7-34.4,2.1,0-.3,0-.5,0-.8,4.8-2,9.8.2,14.3-.6-10.5-.2-21.3-.7-32.1-.5-1.2,0-2.3,0-3.1-1.1Z"/><path class="cls-19" d="M255.9,359.4c6.6-1.6,13.1-1.6,19.7,0,1.3.3,2.6.7,3.7,1.3,7.2,4.1,8.4,8.2,4.6,15.4-1.4,2.6-3,5.1-5.3,8.9.7-5.5,2.5-9,3.8-12.7,1.8-4.9.4-8-4.5-9.7-5.6-1.9-11.3-2.4-17.2-2.1-1.7,0-3.8,1.9-4.9-1Z"/><path class="cls-59" d="M255.9,359.4c1.4,1.6,3.3.6,4.9,1-.7.4-1.5.7-2.1,1.2-1.5,1.2-2.5,2.9-2.4,4.7.2,1.9,2.6.4,3.8,1.8-3.8,1.9-7.8,3.3-10.4,7.8-1.1-3.2-1.6-5.9-4.3-6.9-.8.9-.3,1.7,0,2.4.4,1.4,0,2.5-1.4,2.5-1.3,0-1-1.4-1.1-2.4-.2-2.4,1.8-4.8.1-7.2.6-.5,1.2-.5,1.8,0,1.2,2.3,3.1,3.7,5.7,2.8,2.6-.9,4.6-2.7,4.7-5.8,0-.8-.3-1.6.8-2Z"/><path class="cls-74" d="M365.4,233.3c-2,8-2.4,16.1-2,24.2-1.9-2.6-.7-5.6-1-8.4-.2-1.9.8-3.9-.8-5.5-1.6-1,.1-2.9-1-4-.1-.8-.2-1.6-1.1-2.1,2.4-6.6,4.8-13.2,7.1-19.8,2.1,0,1.7,1.7,1.9,3-.7,2.5,0,5.5-2.1,7.6-1,1.5-1,3.3-1,5Z"/><path class="cls-34" d="M315.5,513c.2,1,.5,1.9,1.7,2.1.2,2.2-2.5,2.9-2.6,4.9-5.6,4.5-12.6,7.1-18,12-1.5,1.4-3.2,2.6-5.1,3.5,6.5-9.1,16.8-14.3,24-22.6Z"/><path class="cls-14" d="M427.2,315.3c2.5-.6,4.9-1.2,7.4-1.8,6.5-.9,12.8-2.5,18.9-4.9,1.6-.4,3.3-.8,4.9-1.2,1-.4,1.2,0,.9,1-6.6,3.3-13.3,6.6-19.9,9.9,0-.7,0-1.4,0-2.2-2.4-1.5-4.5,2.4-6.9.4-1.5-1.7-3.6-.4-5.3-1.1Z"/><path class="cls-61" d="M285.7,333.4c3.4,3.8.6,5.4-2.1,7.9-7.9,7.4-17,6.7-26.4,4.7-.8-.2-2-.6-1.9-2.4,7.3,2.6,14.6,1.7,21.7-.5,3.6-1.1,6.8-2.9,6.6-7.5,2,.5,1.2-1.7,2.1-2.2Z"/><path class="cls-73" d="M327.8,327.3c-.4,1.8,1,3.8-.7,5.6-.8.8-.3,3.1-2.1,2.8-1.4-.2-2.3-1.8-2.4-3.4,0-1.6,0-3.3,0-4.9.4-3,.7-5.9,1.1-8.9,1.2-1.5-.6-3.9,1.4-5.3,1.9,1.5.3,3.7,1.3,5.3.4,2.9.9,5.8,1.3,8.7Z"/><path class="cls-35" d="M224.6,319.5c.3,0,.7-.2,1-.1,8.5,4.3,14.8.5,20.4-5.7.5-.6,1.1-1.2,2.1-.8-3.9,10.6-13.5,13.9-24.3,8.4,0-.7,3.4.1.8-1.8Z"/><path class="cls-43" d="M348.6,356.4c-1.2-.4-2.6-.7-3.7-1.3-1.3-.8-4.3-.1-3.5-3.1.6-2.4,2.7-2.7,4.8-2.7.8,0,1.7,0,2.5,0,2.7.6,5.4,1.3,8.1,1.9-.6,1.2-1.8,1.1-2.9,1.4-2,.5-.5,1.2-.2,1.9-1.7.6-3.4,1.3-5.1,1.9Z"/><path class="cls-31" d="M412.5,346.2c-3.1,2.2,1.2,1.9,1,3.1-2.4.2-4.5-.8-6.6-1.7-2.3-1-7.5-.6-2.8-5.4.8-.9.2-3.2.3-4.8,0,0,0,0,0,0,2,0,4,.3,3.9,2.7-.1,3.3,2.1,4.6,4.2,6.2Z"/><path class="cls-82" d="M320.8,255.5c1.8-2.7.8-5.8.9-8.7.2-8.4,0-16.8,0-25.5,1.6,1.4.4,3.3,1.8,4.3,0,4.6,0,9.3,0,13.9-1.2,5.3.4,10.8-.8,16.1,0,1-.1,1.9-.2,2.9-.9.8.4,3.2-1.6,2.9-1.3-.2-.8-1.8-.3-2.9,0-1,.1-1.9.2-2.9Z"/><path class="cls-33" d="M302.6,349.3c.6.2,1.4.1,1.9.5,1.5,1.2,5.2-.7,4.8,2.5-.3,2.6-2.8,4.2-5.8,4.1-.3,0-.6,0-1,0-.7-.4-1.3-.7-2-1.1-.2-.4-.4-.9-.7-1.2-.6-.6.8-3-1.8-2.1-.5.2-1.2-.4-1.5-.9,2-.6,4.1-1.3,6.1-1.9Z"/><path class="cls-80" d="M229.7,383.1c5.5-2,10.2-1.3,14,3.6,2.4,3.1,5,5.9,6.8,9.6-2.2-2.1-4.6-4-6.5-6.4-3.8-4.7-8.2-6.9-14.2-4.6-.9-.7,1.5-1.5,0-2.2Z"/><path class="cls-18" d="M151.9,373.3c1,1.6,2,.3,3,0-4.1,7.3-9.9,13.1-16.3,18.5,4.6-6.1,9.5-11.8,13.3-18.4Z"/><path class="cls-42" d="M355.5,449.3c-2-4.2-1.1-8.1,1.6-11.6,2.6-3.4,6-5.8,9.8-8-4.4,5.6-10.9,10.1-9.4,18.6-1.1-.5-1.6,0-2,1Z"/><path class="cls-32" d="M293.6,447.1c.8-5-1.6-8.6-5.2-11.7-2.1-1.8-4.4-3.4-5.9-5.7,14.2,8.2,14.7,11.2,12.4,20.5-1.5-.6-.4-2.3-1.3-3.2Z"/><path class="cls-75" d="M344.5,182.5c.6-1.1.7-1.9-.9-1.9,5.3-4.3,10.7-8.5,16.1-12.8,1.2,1.6-.1,2.3-.9,3-4.4,4.3-8.7,8.9-14.3,11.7Z"/><path class="cls-48" d="M432.5,316.4c2-.6,4-1.2,6-1.8,1.4-.4,1.7.2,1,1.4-5.4,2.6-10.8,5.4-16.9,6.5-1.1,0-2.7,1.4-2.9-1.1,4.3-1.7,8.6-3.4,12.9-5.1Z"/><path class="cls-63" d="M151.8,330.4c-.8.4-.9,1.2-1,2-4.5-5.8-8.6-11.8-13.4-17.4,6,4,10.5,9.4,14.4,15.4Z"/><path class="cls-71" d="M360.6,239.5c1.9.9.6,2.7,1,4-1.7,5.4-3.3,10.9-5,16.3-1.7-7.4,2-13.7,3.9-20.3Z"/><path class="cls-25" d="M293.6,447.1c1.4.7,1,2.1,1.3,3.2-1.4,6.1-3.1,12.1-6.6,17.3.7-7.1,3.2-13.8,5.4-20.5Z"/><path class="cls-76" d="M419.6,321.5c.7,1.2,1.9.8,2.9,1.1-5.5,1.9-10.6,1.9-14.8-3.2-1.9-2.4-4.2-4.5-6-6.9,6.2,2.7,9.6,10.4,17.8,9.1Z"/><path class="cls-15" d="M237.7,349.3c.2-1.1,2.9-1.3,1-3,1.1-1.4,2.9-2.1,3.5-3.9.5-1.3,1.5-2.5,2.7-.5.9,1.4,3.5,1.5,3.2,3.4-.3,1.8-2.7,2.1-4.2,2.8-1.9.8-4.1.9-6.2,1.4Z"/><path class="cls-81" d="M332.4,438.1c-.2-1.6-.7-2.3-1.9-.6-.8,1.2-1.3,2.5-2,3.7-.3-4.6,3.2-8.1,3.2-13.1q5.9,6.5.6,10Z"/><path class="cls-29" d="M288.4,238.1c3.9,6,5.7,12.6,6.3,19.6-3.3-6.1-5.5-12.7-6.3-19.6Z"/><path class="cls-12" d="M229.7,383.1c.5.2,1.1.4,1.6.6-.5.5-1,1.1-1.5,1.6-5.8,1.7-11.1,5-17.3,5.5,5.1-4,11.2-5.7,17.2-7.7Z"/><path class="cls-36" d="M244.7,364.3c-.6,0-1.2,0-1.8,0-.3-3.1-3.2-3.5-5.2-4.8,3.5-1.1-.4-2,0-3,3.1-.4,5.5,1.8,8.5,2,.9,0,1.7.4,1.9,1.3.1.9-.7,1.4-1.5,1.6-1.8.3-1.7,1.7-1.8,3Z"/><path class="cls-56" d="M355.5,449.3c.2-1.4.7-2,2-1,1.4,4.3,2.8,8.6,4.2,12.8.1,1.4.3,2.8.4,4.5-2.6-1.1-1.9-4-3.6-5.5-1-3.6-2.1-7.3-3.1-10.9Z"/><path class="cls-53" d="M185.9,348.2c-5.4-.3-11,1.6-16.1-1.7,1.9-4.1,4.7-2.9,7.3-1,2.7,1.9,6.1,1.3,8.9,2.7Z"/><path class="cls-23" d="M367.6,333.4c-1.1.7-2.3,3.8-3.2-.1,1.8-4.4,4.6-8.3,7.9-11.9-1.6,4-3.1,8-4.7,12Z"/><path class="cls-65" d="M308.7,371.4c.9-1.8,2.7-3.3,2.1-5.8-3.4.6-4.3,4.4-7.2,5.7.7-1.6,1.4-3.3,2.1-4.9.1,0,.3-.1.4-.2,1.9-1.5,4.3-3.9,6.3-2.3,1.7,1.3,0,4.4-.8,6.6-1,.3-2,.7-3,1Z"/><path class="cls-38" d="M342.6,332.4c-.5,2-4.1,2.6-2.4,5.8,1.5-1,3-1.9,4.4-2.8,0,.3,0,.7-.2,1-.8,3.2-3.3,5.4-6.1,4.3-3.3-1.4-.5-4.2.1-6.4,1.4-.5,2.4-2,4.1-1.8Z"/><path class="cls-1" d="M283.4,215.7c.2,2,1.9,3.6,1.4,5.8-1.8,1-.5,2.8-1.1,4.1-2.1-3.4-1.9-7.4-3-11-2.4-3.6-2.4-3.9.1-6,.9,2.4,1.8,4.7,2.7,7.1Z"/><path class="cls-6" d="M292.7,351.4c-1.2.5-2.3.9-3.7,1.5,1.4.5,2.6,1,3.7,1.4-5.1.7-10-.9-16.4-1.1,6.2-1.9,11.2-2.1,16.3-1.8Z"/><path class="cls-69" d="M320.6,258.4c.1.7.2,1.5.4,2.4.6-.9,1.1-1.6,1.6-2.3.4,4.1-1.6,7.9-2,11.9-2,0-2.8-1-2.9-2.9,1-3,1.9-6.1,2.9-9.1Z"/><path class="cls-13" d="M285.7,333.4c-.1,1.3.1,2.9-2.1,2.2-1.6-4-3.1-8.1-5.2-13.5,4,3.9,5.5,7.7,7.3,11.3Z"/><path class="cls-60" d="M263.5,144.9c-3.8-2-6.4-5.5-9-8.9,4.1,2,7.8,4.6,11.2,7.7-.9,0-1.8,0-2.1,1.2Z"/><path class="cls-83" d="M251.5,278.7c-3.8-3.1-6.5-7.2-9.3-11.3,4.2,3,8,6.2,11.3,10.2-.9,0-1.6.2-2,1.1Z"/><path class="cls-72" d="M217.9,355.2c-9.1,0-18.1,0-27.2,0,9.1-1.5,18.1-1.1,27.2,0Z"/><path class="cls-44" d="M307.7,338.4c3.9-.9,2.3-2.9.9-4.8,1.2-.4,2,.6,2.9,1,.4.7.9,1.4,1.3,2.1.7,1.4,1.4,2.7-.6,3.8-2.5,1.4-3.6-.3-4.6-2.1Z"/><path class="cls-68" d="M326.5,318.6c-.4-1.4-.9-2.7-1.3-4.3-.5,1.5-.9,2.8-1.4,4.2-.5-4.8,0-9.4,1.6-14-.3,4.8,2,9.3,1.2,14.1Z"/><path class="cls-57" d="M120.2,415.5c-2.4,3.1-4.8,6.2-7.8,10,.4-3.8,2.7-5.8,3.5-8.3,1-1.3,2-2.6,3-4,.2.9.2,1.9,1.3,2.3Z"/><path class="cls-40" d="M183.1,401.4c4.1-1.2,7.5-4.2,11.8-5,0,.6-1,1.3,0,1.9-3,2.2-6.8,2.4-10,3.9-1.1.7-1.8.8-1.7-.9Z"/><path class="cls-5" d="M283.5,490.1c-.6,1.4-1.2,2.7-1.8,4.1-2.7-.8-1.9-2.3-.9-3.9,1.4-2.9.9-6.4,2.8-9.1.8,1.2-.6,2.9,1,3.9-.4,1.7-.7,3.3-1.1,5Z"/><path class="cls-30" d="M192.7,310.5c-3.1-.6-5.4-2.7-8.2-4,.5-1,1.5-.8,2.3-1,2,1.7,5.1,1,7,2.9l-1.1,2.1Z"/><path class="cls-50" d="M354.4,324.2c-.6-.3-1.2-.5-1.8-.8,2.2-3.1,5.5-5,8.5-7.2-1.8,3-3.8,5.9-6.7,8Z"/><path class="cls-10" d="M402.7,433.9c-1.7-1.9-3.5-3.7-5.2-5.6.3-.6.7-1.2,1-1.9,2.5.8,2.9,3.7,4.9,4.9,1.2.4,1.9,1.2,1.4,2.4-.4,1-1.3,1.3-2,.1Z"/><path class="cls-70" d="M456.7,398.1c-.1-.3-.2-.6-.2-.9.6-.3,1.2-.5,1.8-.8,3.8,0,6.4,2.9,9.6,4.3-4.1.3-7.4-2-11.2-2.6Z"/><path class="cls-22" d="M402.7,274.5c-2,2.1-4,4.2-5.9,6.2-.4-.8-.8-1.5-1.2-2.3,1.7-1.6,3.4-3.2,5.1-4.9,1.3-1,1.9-.6,2,1Z"/><path class="cls-24" d="M354.8,383.1c.5-.2,1-.4,1.5-.6,2.7,2.2,5,4.8,6.7,7.9-2.8-2.4-6.1-4.2-8.3-7.3Z"/><path class="cls-78" d="M538.2,289.3h-.4c0,.1-.4,0-.4,0-.2-.7,0-1.7-1-2,1.2-2.6,3.2-4.6,5.8-6.1-1.3,2.7-2.7,5.4-4,8Z"/><path class="cls-41" d="M534.4,413.2c1,1.3,2,2.7,3,4,1,.3,1.5,1.1,1.7,2.1,0,1-.3,1.9-1.4,2.2-2.2-.7-3.7-2-4-4.4-.2-.6-.3-1.1-.5-1.7,1-.4,1.1-1.3,1.2-2.2Z"/><path class="cls-69" d="M322.7,255.6c0-5.4-.9-10.8.8-16.1.1,5.4.8,10.8-.8,16.1Z"/><path class="cls-55" d="M117.9,289.4c0,.4,0,.7-.1,1.1-.3.6-.6,1.3-.9,1.9-1-1.4-1.9-2.8-2.9-4.2-1.1-.2-1.7-.9-2.2-1.8-.4-.9-.8-2,0-2.7,1.2-1,2.2,0,2.9.8,1.4,1.4,2.7,2.9,3.1,4.9Z"/><path class="cls-58" d="M262.4,564c0,.3,0,.6,0,.9-1.3,2.3-3.1,3.7-5.8,3.8-.8,0-1.9,0-.7-1.1,1.5-1.6,3.2-3.1,4.8-4.6.6.3,1.2.6,1.7,1Z"/><path class="cls-79" d="M394.4,566.2c.8,1,1.5,2,2.3,3-.1.2-.2.4-.4.5-2.3-1.6-4.6-3.1-6.9-4.7.6-.3,1.2-.5,1.8-.8,1.5-.1,1.9,1.6,3.1,1.9Z"/><path class="cls-64" d="M247.6,432.1c1.4-1.6,2.8-3.2,4.2-4.9.3.6.5,1.3.8,1.9-.4,2.2-2.7,2.6-3.9,4-.8.2-1.3,0-1-1Z"/><path class="cls-72" d="M188.8,358.2c3.7-1.6,7.5-.7,11.2-.7-3.7,1.2-7.5.8-11.2.7Z"/><path class="cls-45" d="M469.5,355.3c-3.4-.1-6.8.8-10-.9,3.4,0,6.8-.8,10,.9Z"/><path class="cls-27" d="M402.7,274.5c-.2-1.2-1.2-1-2-1,2.7-2.4,5.3-4.9,8-7.3,0,0,.4,0,.4.1.1.3.1.6.2,1-1.6,2-3.2,4-4.8,6.1-.6.4-1.2.8-1.8,1.1Z"/><path class="cls-77" d="M459.3,308.3c-.3-.3-.6-.7-.9-1,2.5-1.5,5.2-2.7,9-2.9-2.7,2.6-5.1,3.8-8.1,3.9Z"/><path class="cls-9" d="M367.7,220.6c-.5-.9.2-2.3-1-3,0-.6,0-1.3,0-1.9,1.3-2,1.2-4.7,3.5-7-.2,2.4-.3,4.1-.4,5.9.8,2.5.8,4.8-2,6.1Z"/><path class="cls-46" d="M247.6,432.1l1,1c-1.2,2.8-3.6,4.3-6.3,5.6,1.1-2.7,3-4.8,5.2-6.6Z"/><path class="cls-11" d="M334.8,339.4c-.5,2,.6,3.3,2.4,3.6,5,.8,3.9,4.4,2.8,7.1-.9,2-1,3.1.5,4.7,2,2.1.4,5.2-.8,5.5-3.7.9-4.8,3.3-6.2,6.3-.7,1.4-3.3,3.5-5.6.5-1.6-2.2-3.4-1.9-5.4,0-3,2.7-5.5,1-6.5-2-.7-2.2-1.6-3.5-3.6-4.2-3.9-1.3-3.3-3.7-1.3-6.1,1.5-1.8,1.5-2.8,0-4.6-2.4-2.9-2-5.6,1.7-7.1,1.8-.7,2.9-1.4,3.2-3.7.3-2.3,4.8-3.3,6.6-1.5,1.8,1.8,3.5,2.1,5,0,2.1-2.8,4.6-.4,6.9-.6,1.9-.2,0,1.4.3,2.2Z"/></svg>